<svg xmlns="http://www.w3.org/2000/svg" width="300" height="300" viewBox="0 0 299.99999 299.99999"><path d="M195.39 93.72c-2.89 0-5.729 1.17-7.77 3.22a11.053 11.053 0 0 0-3.23 7.78c0 2.891 1.18 5.73 3.23 7.78 2.04 2.04 4.88 3.22 7.77 3.22 2.9 0 5.73-1.18 7.78-3.22 2.05-2.05 3.22-4.89 3.22-7.78 0-2.9-1.17-5.74-3.22-7.78-2.04-2.05-4.88-3.22-7.78-3.22zM150 106.439c-24.021 0-43.563 19.542-43.563 43.563 0 24.02 19.542 43.561 43.563 43.561s43.563-19.541 43.563-43.561c0-24.021-19.542-43.563-43.563-43.563zm0 72.123c-15.749 0-28.563-12.812-28.563-28.561 0-15.75 12.813-28.563 28.563-28.563 15.75 0 28.563 12.813 28.563 28.563 0 15.749-12.814 28.561-28.563 28.561zm37.875-113.093h-75.752c-25.725 0-46.654 20.93-46.654 46.655v75.752c0 25.726 20.929 46.655 46.654 46.655h75.752c25.727 0 46.656-20.93 46.656-46.655v-75.752c.001-25.725-20.929-46.655-46.656-46.655zm31.657 122.407c0 17.455-14.201 31.655-31.656 31.655h-75.753c-17.454.001-31.654-14.2-31.654-31.655v-75.752c0-17.454 14.2-31.655 31.654-31.655h75.752c17.455 0 31.656 14.201 31.656 31.655v75.752zM300 150a150 150 0 0 1-150 150A150 150 0 0 1 0 150 150 150 0 0 1 150 0a150 150 0 0 1 150 150z"/></svg>