<?xml version="1.0" encoding="utf-8"?>
<svg xmlns="http://www.w3.org/2000/svg">
<symbol id="fb" viewBox="0 0 486.392 486.392"><path d="M243.196 0C108.891 0 0 108.891 0 243.196s108.891 243.196 243.196 243.196 243.196-108.891 243.196-243.196C486.392 108.861 377.501 0 243.196 0zm62.866 243.165l-39.854.03-.03 145.917h-54.689V243.196H175.01v-50.281l36.479-.03-.061-29.609c0-41.039 11.126-65.997 59.431-65.997h40.249v50.311h-25.171c-18.817 0-19.729 7.022-19.729 20.124l-.061 25.171h45.234l-5.319 50.28z"/>
</symbol>
<symbol id="flag_id" viewBox="0 0 640 480"><g fill-rule="evenodd" stroke-width="1pt"><path fill="#e70011" d="M0 0h639.958v248.947H0z"/><path fill="#fff" d="M0 240h639.958v240H0z"/></g>
</symbol>
<symbol id="flag_us" viewBox="0 0 640 480"><g fill-rule="evenodd"><g stroke-width="1pt"><path d="M0 0h912.01v36.923H0zm0 73.847h912.01v36.923H0zm0 73.847h912.01v36.923H0zm0 73.847h912.01v36.923H0zm0 73.846h912.01v36.924H0zm0 73.847h912.01v36.924H0zm0 73.847h912.01v36.924H0z" fill="#bd3d44"/><path d="M0 36.923h912.01v36.924H0zm0 73.847h912.01v36.924H0zm0 73.847h912.01v36.924H0zm0 73.847h912.01v36.924H0zm0 73.847h912.01v36.923H0zm0 73.847h912.01v36.923H0z" fill="#fff"/></g><path fill="#192f5d" d="M0 0h364.8v258.46H0z"/><g fill="#fff"><path d="M30.4 11.063l3.32 10.214h10.74l-8.69 6.315 3.32 10.215-8.69-6.314-8.69 6.314 3.32-10.215-8.69-6.315h10.74zm60.8 0l3.32 10.214h10.742l-8.691 6.315 3.32 10.215-8.691-6.314-8.689 6.314 3.319-10.215-8.69-6.315h10.741zm60.802 0l3.32 10.214h10.741l-8.69 6.315 3.32 10.215-8.69-6.314-8.69 6.314 3.319-10.215-8.69-6.315h10.742zm60.8 0l3.318 10.214h10.74l-8.689 6.315 3.319 10.215-8.689-6.314-8.69 6.314 3.32-10.215-8.691-6.315h10.742zm60.8 0l3.32 10.214h10.741l-8.69 6.315 3.32 10.215-8.691-6.314-8.689 6.314 3.319-10.215-8.69-6.315h10.741zm60.802 0l3.32 10.214h10.741l-8.69 6.315 3.32 10.215-8.69-6.314-8.691 6.314 3.32-10.215-8.69-6.315h10.742zM60.802 36.909l3.318 10.215h10.742l-8.69 6.313 3.32 10.216-8.69-6.313-8.69 6.313 3.319-10.216-8.69-6.313h10.742zm60.798 0l3.32 10.215h10.74l-8.69 6.313 3.32 10.216-8.69-6.313-8.69 6.313 3.32-10.216-8.691-6.313h10.742zm60.802 0l3.319 10.215h10.742l-8.691 6.313 3.32 10.216-8.691-6.313-8.689 6.313 3.319-10.216-8.69-6.313h10.741zm60.801 0l3.32 10.215h10.741l-8.69 6.313 3.32 10.216-8.69-6.313-8.691 6.313 3.321-10.216-8.69-6.313h10.742zm60.8 0l3.318 10.215h10.74l-8.689 6.313 3.319 10.216-8.689-6.313-8.69 6.313 3.32-10.216-8.691-6.313h10.741zM30.4 62.755l3.32 10.215h10.74l-8.69 6.314L39.09 89.5l-8.69-6.313-8.69 6.313 3.32-10.215-8.69-6.314h10.74zm60.8 0l3.32 10.215h10.742l-8.691 6.314L99.89 89.5 91.2 83.186 82.511 89.5l3.319-10.215-8.69-6.314h10.741zm60.802 0l3.32 10.215h10.741l-8.69 6.314 3.32 10.215-8.69-6.313-8.69 6.313 3.319-10.215-8.69-6.314h10.742zm60.8 0l3.318 10.215h10.74l-8.689 6.314L221.49 89.5l-8.689-6.313-8.69 6.313 3.32-10.215-8.691-6.314h10.742zm60.8 0l3.32 10.215h10.741l-8.69 6.314 3.32 10.215-8.691-6.313-8.689 6.313 3.319-10.215-8.69-6.314h10.741zm60.802 0l3.32 10.215h10.741l-8.69 6.314 3.32 10.215-8.69-6.313-8.691 6.313 3.32-10.215-8.69-6.314h10.742zM60.802 88.601l3.318 10.216h10.742l-8.69 6.313 3.32 10.216-8.69-6.313-8.69 6.313 3.319-10.216-8.69-6.313h10.742zm60.798 0l3.32 10.216h10.74l-8.69 6.313 3.32 10.216-8.69-6.313-8.69 6.313 3.32-10.216-8.691-6.313h10.742zm60.802 0l3.319 10.216h10.742l-8.691 6.313 3.32 10.216-8.691-6.313-8.689 6.313 3.319-10.216-8.69-6.313h10.741zm60.801 0l3.32 10.216h10.741l-8.69 6.313 3.32 10.216-8.69-6.313-8.691 6.313 3.32-10.216-8.69-6.313h10.742zm60.8 0l3.318 10.216h10.74l-8.689 6.313 3.319 10.216-8.689-6.313-8.69 6.313 3.32-10.216-8.691-6.313h10.741zM30.4 114.448l3.32 10.215h10.74l-8.69 6.314 3.32 10.215-8.69-6.313-8.69 6.313 3.32-10.215-8.69-6.314h10.74zm60.8 0l3.32 10.215h10.742l-8.691 6.314 3.32 10.215-8.691-6.313-8.689 6.313 3.319-10.215-8.69-6.314h10.741zm60.802 0l3.32 10.215h10.741l-8.69 6.314 3.32 10.215-8.69-6.313-8.69 6.313 3.319-10.215-8.69-6.314h10.742zm60.8 0l3.318 10.215h10.74l-8.689 6.314 3.319 10.215-8.689-6.313-8.69 6.313 3.32-10.215-8.691-6.314h10.742zm60.8 0l3.32 10.215h10.741l-8.69 6.314 3.32 10.215-8.691-6.313-8.689 6.313 3.319-10.215-8.69-6.314h10.741zm60.802 0l3.32 10.215h10.741l-8.69 6.314 3.32 10.215-8.69-6.313-8.691 6.313 3.32-10.215-8.69-6.314h10.742zM60.802 140.294l3.318 10.216h10.742l-8.69 6.313 3.32 10.216-8.69-6.313-8.69 6.313 3.319-10.216-8.69-6.313h10.742zm60.798 0l3.32 10.216h10.74l-8.69 6.313 3.32 10.216-8.69-6.313-8.69 6.313 3.32-10.216-8.691-6.313h10.742zm60.802 0l3.319 10.216h10.742l-8.691 6.313 3.32 10.216-8.691-6.313-8.689 6.313 3.319-10.216-8.69-6.313h10.741zm60.801 0l3.32 10.216h10.741l-8.69 6.313 3.32 10.216-8.69-6.313-8.691 6.313 3.32-10.216-8.69-6.313h10.742zm60.8 0l3.318 10.216h10.74l-8.689 6.313 3.319 10.216-8.689-6.313-8.69 6.313 3.32-10.216-8.691-6.313h10.741zM30.4 166.14l3.32 10.216h10.74l-8.69 6.314 3.32 10.215-8.69-6.313-8.69 6.313 3.32-10.215-8.69-6.314h10.74zm60.8 0l3.32 10.216h10.742l-8.691 6.314 3.32 10.215-8.691-6.313-8.689 6.313 3.319-10.215-8.69-6.314h10.741zm60.802 0l3.32 10.216h10.741l-8.69 6.314 3.32 10.215-8.69-6.313-8.69 6.313 3.319-10.215-8.69-6.314h10.742zm60.8 0l3.318 10.216h10.74l-8.689 6.314 3.319 10.215-8.689-6.313-8.69 6.313 3.32-10.215-8.691-6.314h10.742zm60.8 0l3.32 10.216h10.741l-8.69 6.314 3.32 10.215-8.691-6.313-8.689 6.313 3.319-10.215-8.69-6.314h10.741zm60.802 0l3.32 10.216h10.741l-8.69 6.314 3.32 10.215-8.69-6.313-8.691 6.313 3.32-10.215-8.69-6.314h10.742zM60.802 191.988l3.318 10.216h10.742l-8.69 6.313 3.32 10.216-8.69-6.313-8.69 6.313 3.319-10.216-8.69-6.313h10.742zm60.798 0l3.32 10.216h10.74l-8.69 6.313 3.32 10.216-8.69-6.313-8.69 6.313 3.32-10.216-8.691-6.313h10.742zm60.802 0l3.319 10.216h10.742l-8.691 6.313 3.32 10.216-8.691-6.313-8.689 6.313 3.319-10.216-8.69-6.313h10.741zm60.801 0l3.32 10.216h10.741l-8.69 6.313 3.32 10.216-8.69-6.313-8.691 6.313 3.32-10.216-8.69-6.313h10.742zm60.8 0l3.318 10.216h10.74l-8.689 6.313 3.319 10.216-8.689-6.313-8.69 6.313 3.32-10.216-8.691-6.313h10.741zM30.4 217.834l3.32 10.215h10.74l-8.69 6.314 3.32 10.215-8.69-6.313-8.69 6.313 3.32-10.215-8.69-6.314h10.74zm60.8 0l3.32 10.215h10.742l-8.691 6.314 3.32 10.215-8.691-6.313-8.689 6.313 3.319-10.215-8.69-6.314h10.741zm60.802 0l3.32 10.215h10.741l-8.69 6.314 3.32 10.215-8.69-6.313-8.69 6.313 3.319-10.215-8.69-6.314h10.742zm60.8 0l3.318 10.215h10.74l-8.689 6.314 3.319 10.215-8.689-6.313-8.69 6.313 3.32-10.215-8.691-6.314h10.742zm60.8 0l3.32 10.215h10.741l-8.69 6.314 3.32 10.215-8.691-6.313-8.689 6.313 3.319-10.215-8.69-6.314h10.741zm60.802 0l3.32 10.215h10.741l-8.69 6.314 3.32 10.215-8.69-6.313-8.691 6.313 3.32-10.215-8.69-6.314h10.742z"/></g></g>
</symbol>
<symbol id="inside_logo" viewBox="0 0 298.7 120.8"><path fill="#DCDDE6" d="M104.4 82L0 115.7l43.5 5.1 60.9-25.7z"/><path fill="#00AEEF" d="M104.4 95.1l-60.9 25.7V0l60.9 26.4z"/><path fill="#DCDDE6" d="M252.5 120.8L108.4 94.9v-9.4l190.3 26.6z"/><path fill="#0092C8" d="M252.5 0v120.8l-55.1-9.8V52.1l-42.8 2v49.2l-46.2-8.2v-69z"/>
</symbol>
<symbol id="instagram" viewBox="0 0 299.99999 299.99999"><path d="M195.39 93.72c-2.89 0-5.729 1.17-7.77 3.22a11.053 11.053 0 0 0-3.23 7.78c0 2.891 1.18 5.73 3.23 7.78 2.04 2.04 4.88 3.22 7.77 3.22 2.9 0 5.73-1.18 7.78-3.22 2.05-2.05 3.22-4.89 3.22-7.78 0-2.9-1.17-5.74-3.22-7.78-2.04-2.05-4.88-3.22-7.78-3.22zM150 106.439c-24.021 0-43.563 19.542-43.563 43.563 0 24.02 19.542 43.561 43.563 43.561s43.563-19.541 43.563-43.561c0-24.021-19.542-43.563-43.563-43.563zm0 72.123c-15.749 0-28.563-12.812-28.563-28.561 0-15.75 12.813-28.563 28.563-28.563 15.75 0 28.563 12.813 28.563 28.563 0 15.749-12.814 28.561-28.563 28.561zm37.875-113.093h-75.752c-25.725 0-46.654 20.93-46.654 46.655v75.752c0 25.726 20.929 46.655 46.654 46.655h75.752c25.727 0 46.656-20.93 46.656-46.655v-75.752c.001-25.725-20.929-46.655-46.656-46.655zm31.657 122.407c0 17.455-14.201 31.655-31.656 31.655h-75.753c-17.454.001-31.654-14.2-31.654-31.655v-75.752c0-17.454 14.2-31.655 31.654-31.655h75.752c17.455 0 31.656 14.201 31.656 31.655v75.752zM300 150a150 150 0 0 1-150 150A150 150 0 0 1 0 150 150 150 0 0 1 150 0a150 150 0 0 1 150 150z"/>
</symbol>
<symbol id="mail" viewBox="0 0 511.627 401.98899"><path class="env-svg" d="M49.106 123.909c6.472 4.567 25.981 18.131 58.528 40.685 32.548 22.554 57.482 39.92 74.803 52.099 1.903 1.335 5.946 4.237 12.131 8.71 6.186 4.476 11.326 8.093 15.416 10.852 4.093 2.758 9.041 5.852 14.849 9.277 5.806 3.422 11.279 5.996 16.418 7.7 5.14 1.718 9.898 2.569 14.275 2.569h.575c4.377 0 9.137-.852 14.277-2.569 5.137-1.704 10.615-4.281 16.416-7.7 5.804-3.429 10.752-6.52 14.845-9.277 4.093-2.759 9.229-6.376 15.417-10.852 6.184-4.477 10.232-7.375 12.135-8.71 17.508-12.179 62.051-43.11 133.615-92.79 13.894-9.703 25.502-21.411 34.827-35.116 9.332-13.699 13.993-28.07 13.993-43.105 0-12.564-4.523-23.319-13.565-32.264C489.02 4.471 478.312 0 465.944 0H45.679C31.024 0 19.746 4.948 11.847 14.844 3.949 24.742 0 37.114 0 51.959 0 63.95 5.236 76.944 15.703 90.933c10.466 13.99 21.604 24.983 33.403 32.976z"/><path class="env-svg" d="M483.072 154.455c-62.424 42.251-109.824 75.087-142.177 98.501-10.849 7.991-19.65 14.229-26.409 18.699-6.759 4.473-15.748 9.041-26.98 13.702-11.228 4.668-21.692 6.995-31.401 6.995h-.578c-9.707 0-20.177-2.327-31.405-6.995-11.228-4.661-20.223-9.229-26.98-13.702-6.755-4.47-15.559-10.708-26.407-18.699-25.697-18.842-72.995-51.68-141.896-98.501C17.987 147.227 8.375 138.942 0 129.617v226.685c0 12.57 4.471 23.319 13.418 32.265 8.945 8.949 19.701 13.422 32.264 13.422h420.266c12.56 0 23.315-4.473 32.261-13.422 8.949-8.949 13.418-19.694 13.418-32.265V129.617c-8.186 9.132-17.7 17.417-28.555 24.838z"/>
</symbol>
<symbol id="phone" viewBox="0 0 578.106 578.106"><path d="M577.83 456.128c1.225 9.385-1.635 17.545-8.568 24.48l-81.396 80.781c-3.672 4.08-8.465 7.551-14.381 10.404-5.916 2.857-11.729 4.693-17.439 5.508-.408 0-1.635.105-3.676.309-2.037.203-4.689.307-7.953.307-7.754 0-20.301-1.326-37.641-3.979s-38.555-9.182-63.645-19.584c-25.096-10.404-53.553-26.012-85.376-46.818-31.823-20.805-65.688-49.367-101.592-85.68-28.56-28.152-52.224-55.08-70.992-80.783-18.768-25.705-33.864-49.471-45.288-71.299-11.425-21.828-19.993-41.616-25.705-59.364S4.59 177.362 2.55 164.51-.306 141.56.102 134.216c.408-7.344.612-11.424.612-12.24.816-5.712 2.652-11.526 5.508-17.442s6.324-10.71 10.404-14.382L98.022 8.756c5.712-5.712 12.24-8.568 19.584-8.568 5.304 0 9.996 1.53 14.076 4.59s7.548 6.834 10.404 11.322l65.484 124.236c3.672 6.528 4.692 13.668 3.06 21.42-1.632 7.752-5.1 14.28-10.404 19.584l-29.988 29.988c-.816.816-1.53 2.142-2.142 3.978s-.918 3.366-.918 4.59c1.632 8.568 5.304 18.36 11.016 29.376 4.896 9.792 12.444 21.726 22.644 35.802s24.684 30.293 43.452 48.653c18.36 18.77 34.68 33.354 48.96 43.76 14.277 10.4 26.215 18.053 35.803 22.949 9.588 4.896 16.932 7.854 22.031 8.871l7.648 1.531c.816 0 2.145-.307 3.979-.918 1.836-.613 3.162-1.326 3.979-2.143l34.883-35.496c7.348-6.527 15.912-9.791 25.705-9.791 6.938 0 12.443 1.223 16.523 3.672h.611l118.115 69.768c8.571 5.308 13.67 12.038 15.303 20.198z"/>
</symbol>
<symbol id="pinpoint" viewBox="0 0 282.76699 366.29997"><path class="map-svg" d="M141.383 2C64.528 2 2 64.528 2 141.384c0 72.646 115.691 197.714 128.881 211.753l10.502 11.163 10.502-11.163c13.193-14.027 128.882-139.107 128.882-211.753C280.773 64.528 218.245 2 141.383 2zm0 197.065c-31.801 0-57.676-25.875-57.676-57.676 0-31.802 25.875-57.676 57.676-57.676 31.808 0 57.676 25.875 57.676 57.676 0 31.802-25.868 57.676-57.676 57.676z"/>
</symbol></svg>