<?xml version="1.0" standalone="no"?>
<!DOCTYPE svg PUBLIC "-//W3C//DTD SVG 20010904//EN"
 "http://www.w3.org/TR/2001/REC-SVG-20010904/DTD/svg10.dtd">
<svg version="1.0" xmlns="http://www.w3.org/2000/svg"
 width="1672.000000pt" height="1672.000000pt" viewBox="0 0 1672.000000 1672.000000"
 preserveAspectRatio="xMidYMid meet">
<metadata>
Created by potrace 1.11, written by Peter Selinger 2001-2013
</metadata>
<g transform="translate(0.000000,1672.000000) scale(0.100000,-0.100000)"
fill="#000000" stroke="none">
<path d="M0 8366 c0 -2652 2 -4825 6 -4828 3 -3 54 16 114 42 59 27 111 46
114 42 3 -3 6 0 6 6 0 7 7 12 15 12 8 0 23 4 33 10 23 13 110 50 117 50 3 0
29 11 57 25 29 14 63 27 77 30 13 2 32 12 42 21 11 9 19 14 19 10 0 -4 10 -1
23 6 12 7 25 12 29 13 3 0 10 3 14 8 4 4 16 7 26 7 10 0 18 5 18 10 0 6 7 10
16 10 8 0 40 11 70 25 30 14 57 25 59 25 2 0 30 12 62 26 32 14 69 30 83 36
14 5 39 16 55 23 17 8 71 30 120 50 89 37 111 46 190 81 22 10 42 19 45 19 11
3 79 32 172 74 26 11 50 21 53 21 4 0 37 14 140 60 11 5 45 19 75 31 30 12 71
29 90 37 19 9 37 17 40 17 3 0 27 11 54 23 27 12 51 22 53 22 3 0 34 14 70 30
35 17 67 30 70 30 3 0 21 7 41 16 76 34 98 43 143 63 26 11 59 23 73 27 14 3
26 10 26 15 0 5 3 8 8 8 4 -1 10 0 15 1 4 1 10 3 15 4 4 1 29 12 56 24 27 12
50 22 53 22 2 0 25 9 51 21 26 12 61 27 77 34 17 8 73 32 125 53 52 22 113 48
135 58 22 10 45 18 50 20 6 1 33 11 60 24 28 12 66 28 85 36 19 8 49 23 65 32
17 9 30 15 30 13 0 -4 126 46 215 86 19 8 50 22 68 29 17 8 47 20 65 28 17 8
56 24 86 36 48 18 99 40 166 70 97 43 122 53 133 53 6 0 12 4 12 9 0 4 8 8 18
8 10 0 22 3 26 7 4 5 11 8 14 9 9 1 44 16 102 42 25 12 74 33 110 48 36 14 76
31 90 37 14 6 27 11 30 12 9 3 60 25 103 43 23 11 99 43 170 73 114 48 127 56
128 79 0 14 0 1248 1 2743 0 1797 -3 2722 -9 2728 -6 6 -17 12 -24 13 -8 1
-41 15 -74 30 -33 16 -73 34 -90 41 -56 24 -180 77 -225 97 -25 11 -61 27 -80
35 -19 8 -43 19 -52 24 -10 5 -24 9 -32 9 -7 0 -19 7 -26 15 -7 8 -15 13 -19
11 -3 -2 -24 4 -45 15 -22 10 -45 19 -52 19 -7 0 -14 3 -16 8 -1 4 -30 18 -63
31 -58 24 -107 45 -220 96 -31 14 -57 25 -60 25 -2 0 -33 14 -68 30 -36 17
-68 30 -71 30 -3 0 -36 14 -73 31 -166 76 -223 99 -223 91 0 -4 -4 -2 -8 4 -4
5 -47 27 -97 48 -93 40 -158 68 -210 91 -84 37 -103 45 -130 56 -17 7 -32 13
-35 14 -3 0 -14 6 -26 12 -12 7 -43 21 -70 31 -45 18 -104 44 -211 93 -24 10
-46 19 -50 19 -5 0 -21 7 -38 16 -16 9 -57 27 -90 41 -33 14 -109 47 -170 73
-145 64 -169 74 -177 72 -5 -1 -8 3 -8 10 0 6 -2 9 -6 6 -3 -3 -32 7 -65 23
-32 16 -61 29 -63 29 -2 0 -21 7 -42 16 -22 9 -39 15 -39 13 0 -2 -11 4 -25
14 -13 9 -32 17 -41 17 -10 0 -19 3 -21 8 -3 7 -135 65 -195 86 -18 6 -33 14
-33 18 0 5 -6 8 -14 8 -8 0 -45 14 -83 31 -37 17 -87 39 -110 50 -24 10 -45
19 -48 19 -2 0 -28 11 -57 24 -78 35 -149 66 -183 81 -16 7 -43 18 -60 25 -16
8 -33 13 -37 12 -5 -1 -8 2 -8 7 0 7 -43 24 -57 22 -1 0 -34 16 -73 35 -39 19
-73 34 -75 34 -3 0 -24 9 -48 19 -53 25 -142 62 -142 61 0 0 -58 25 -130 58
-71 32 -133 59 -137 61 -9 2 -46 18 -155 65 l-83 35 0 -4823z"/>
<path d="M16677 13184 c-3 -3 -20 -7 -38 -10 -19 -2 -45 -6 -59 -9 -14 -3 -40
-8 -59 -11 -18 -3 -43 -8 -55 -10 -11 -2 -36 -7 -55 -10 -18 -3 -43 -8 -55
-10 -11 -2 -46 -8 -76 -14 -30 -6 -66 -12 -80 -15 -14 -3 -38 -7 -55 -9 -16
-3 -46 -8 -65 -12 -19 -3 -44 -8 -55 -9 -11 -2 -20 -4 -20 -5 0 -1 -13 -3 -30
-5 -25 -3 -87 -15 -105 -20 -3 -1 -25 -5 -50 -9 -52 -8 -243 -43 -280 -51 -14
-3 -38 -7 -55 -9 -26 -4 -124 -21 -230 -41 -16 -3 -41 -8 -55 -10 -14 -2 -34
-6 -45 -8 -22 -5 -97 -18 -130 -23 -11 -2 -31 -5 -45 -9 -14 -3 -38 -7 -55
-10 -16 -2 -39 -6 -50 -9 -17 -3 -148 -28 -220 -42 -11 -2 -36 -5 -55 -8 -31
-4 -68 -11 -175 -31 -16 -3 -55 -10 -85 -15 -30 -6 -65 -12 -76 -14 -12 -2
-39 -7 -60 -11 -40 -7 -65 -12 -74 -15 -3 -1 -8 -2 -13 -1 -4 1 -26 -3 -50 -8
-41 -10 -66 -14 -137 -26 -19 -3 -69 -12 -110 -20 -100 -19 -128 -24 -173 -31
-51 -8 -72 -12 -72 -15 0 -1 -13 -3 -30 -4 -29 -3 -58 -8 -120 -22 -16 -4 -39
-8 -50 -9 -11 -1 -35 -4 -52 -8 -18 -3 -45 -8 -60 -11 -16 -3 -39 -7 -53 -10
-24 -5 -44 -9 -105 -19 -16 -3 -93 -17 -170 -32 -77 -14 -151 -27 -165 -29
-14 -2 -25 -4 -25 -5 0 -2 -15 -5 -80 -14 -50 -8 -81 -13 -120 -21 -51 -10
-79 -15 -115 -21 -19 -3 -43 -7 -53 -10 -10 -3 -30 -7 -45 -9 -53 -7 -164 -27
-247 -45 -22 -5 -69 -14 -105 -19 -82 -14 -113 -19 -175 -31 -67 -13 -103 -19
-145 -26 -19 -3 -42 -7 -50 -9 -8 -3 -33 -7 -55 -10 -22 -3 -53 -9 -70 -12
-46 -10 -47 -10 -90 -17 -90 -14 -110 -19 -117 -30 -5 -7 -8 -7 -8 -1 0 7 -42
2 -112 -12 -62 -13 -129 -25 -148 -28 -19 -2 -46 -7 -60 -10 -14 -2 -41 -7
-60 -10 -19 -3 -42 -8 -50 -10 -14 -4 -56 -11 -120 -20 -14 -1 -25 -4 -25 -5
0 -2 -34 -9 -75 -14 -19 -3 -35 -5 -35 -6 0 -1 -11 -3 -25 -5 -14 -2 -35 -6
-47 -8 -37 -9 -118 -21 -125 -19 -5 1 -8 -1 -8 -6 0 -4 -15 -8 -33 -8 -28 -2
-92 -12 -167 -29 -14 -3 -38 -7 -55 -10 -16 -3 -43 -7 -60 -10 -16 -3 -43 -8
-60 -10 -53 -9 -60 -10 -71 -17 -5 -4 -19 -5 -30 -4 -10 2 -23 1 -29 -2 -5 -3
-16 -7 -25 -8 -83 -10 -129 -18 -149 -26 -13 -5 -26 -7 -28 -4 -3 2 -19 0 -36
-5 -18 -5 -52 -12 -77 -15 -25 -3 -47 -8 -50 -9 -3 -2 -26 -6 -50 -10 -25 -3
-63 -10 -85 -15 -36 -8 -95 -18 -150 -26 -11 -1 -20 -3 -20 -4 0 -4 -119 -23
-147 -24 -10 0 -18 -3 -18 -6 0 -3 -8 -6 -17 -7 -20 -1 -76 -9 -113 -17 -14
-3 -37 -7 -52 -8 -16 -1 -28 -5 -28 -8 0 -3 -12 -6 -27 -6 -16 -1 -41 -4 -58
-7 -16 -3 -43 -9 -60 -11 -16 -3 -41 -8 -55 -11 -14 -3 -39 -7 -56 -10 -18 -2
-69 -11 -115 -20 -46 -9 -97 -19 -114 -21 -16 -3 -41 -7 -55 -10 -14 -3 -36
-8 -50 -10 -14 -3 -50 -9 -80 -15 -30 -6 -70 -13 -90 -14 -19 -2 -35 -4 -35
-5 0 -3 -40 -11 -70 -14 -16 -1 -39 -5 -50 -9 -11 -3 -36 -8 -55 -11 -19 -3
-46 -8 -60 -11 -30 -6 -62 -12 -110 -20 -19 -3 -57 -10 -85 -15 -27 -5 -63
-12 -80 -15 -62 -10 -91 -16 -115 -20 -14 -3 -36 -8 -50 -10 -14 -3 -39 -7
-55 -9 -17 -3 -42 -7 -55 -11 -14 -3 -38 -8 -55 -10 -16 -2 -30 -4 -30 -5 0
-1 -11 -4 -25 -6 -68 -10 -89 -13 -135 -22 -27 -6 -53 -8 -57 -6 -5 3 -8 1 -8
-3 0 -5 -10 -10 -22 -10 -25 -2 -25 -2 -188 -31 -63 -12 -128 -24 -145 -27
-16 -3 -43 -7 -60 -10 -34 -6 -68 -13 -105 -21 -14 -3 -34 -7 -45 -8 -11 -2
-38 -6 -60 -10 -23 -3 -52 -9 -65 -11 -14 -3 -38 -8 -55 -11 -16 -4 -41 -8
-55 -9 -14 -2 -25 -4 -25 -5 0 -1 -13 -3 -30 -5 -16 -2 -41 -7 -53 -10 -13 -3
-42 -8 -64 -11 -47 -7 -73 -12 -73 -14 0 -1 -9 -3 -20 -5 -27 -4 -94 -15 -125
-21 -14 -2 -74 -14 -135 -25 -60 -11 -121 -22 -135 -24 -14 -2 -34 -6 -45 -8
-11 -3 -40 -8 -65 -12 -25 -4 -54 -9 -65 -11 -11 -2 -33 -7 -50 -9 -16 -3 -38
-8 -47 -11 -16 -5 -17 -186 -16 -2763 0 -2092 3 -2758 11 -2758 7 0 50 -7 97
-17 137 -26 432 -78 465 -81 17 -2 37 -5 45 -8 16 -6 66 -16 115 -22 17 -2 41
-6 55 -9 30 -7 98 -18 125 -21 11 -1 27 -5 35 -8 8 -3 62 -13 120 -22 107 -18
160 -27 280 -50 14 -3 43 -8 65 -11 22 -3 82 -14 134 -24 52 -11 98 -17 102
-14 4 2 10 0 13 -4 3 -5 19 -8 36 -7 16 1 30 -1 30 -5 0 -4 6 -7 13 -7 11 0
29 -3 122 -19 17 -2 66 -11 110 -19 86 -16 93 -17 230 -40 132 -23 138 -24
165 -30 14 -3 42 -7 64 -10 21 -3 41 -7 46 -10 4 -2 27 -7 51 -9 24 -3 55 -8
69 -12 14 -3 39 -7 55 -9 17 -2 30 -4 30 -5 0 -2 30 -7 89 -14 27 -4 53 -9 58
-12 6 -4 26 -8 46 -10 21 -2 48 -6 62 -9 13 -4 38 -8 55 -11 16 -2 41 -6 55
-9 14 -3 39 -8 55 -10 17 -2 77 -13 135 -24 58 -11 123 -22 144 -26 21 -3 48
-7 60 -10 26 -6 71 -14 111 -20 17 -3 41 -7 55 -10 14 -3 40 -8 58 -11 l32 -6
0 1969 0 1969 33 0 c109 2 308 14 317 19 5 3 10 1 10 -5 0 -6 4 -8 10 -5 10 6
99 13 290 20 69 3 125 5 125 5 0 1 113 7 299 14 71 3 131 8 134 11 3 3 11 0
19 -6 7 -6 13 -8 13 -3 0 5 35 10 78 11 42 1 124 5 182 7 58 3 157 8 220 10
63 3 115 5 115 6 0 1 52 3 115 5 63 2 115 4 115 5 0 1 38 3 85 5 47 2 148 6
225 10 77 3 176 8 220 10 142 6 338 16 405 20 36 2 139 7 230 10 91 4 168 9
172 12 5 2 8 1 9 -4 0 -4 1 -1067 1 -2360 1 -2293 1 -2353 19 -2354 11 -1 22
-2 27 -3 17 -5 99 -19 117 -22 11 -1 34 -5 50 -8 45 -9 97 -18 120 -22 11 -1
34 -5 50 -8 17 -4 46 -9 65 -12 19 -3 107 -18 195 -34 88 -16 174 -32 190 -35
17 -2 40 -7 51 -9 12 -2 37 -7 55 -10 19 -3 58 -10 88 -16 29 -5 57 -7 62 -4
5 3 9 1 9 -3 0 -5 12 -10 28 -11 15 -1 38 -5 52 -8 24 -5 43 -8 105 -18 17 -3
42 -8 58 -10 15 -3 53 -10 85 -16 31 -6 68 -12 82 -15 14 -3 40 -7 59 -10 18
-2 41 -7 50 -9 9 -3 32 -7 51 -10 19 -2 89 -14 155 -26 66 -12 131 -23 145
-25 14 -2 25 -4 25 -5 0 -1 11 -3 25 -6 14 -2 41 -7 60 -10 19 -4 40 -8 45 -9
6 -1 12 -3 15 -4 3 -1 21 -4 40 -6 19 -2 49 -6 65 -10 17 -3 57 -10 90 -16 33
-5 80 -14 105 -19 25 -5 61 -12 80 -14 19 -3 60 -10 90 -16 30 -6 71 -13 90
-16 19 -2 55 -9 80 -14 25 -5 56 -12 70 -14 44 -7 94 -16 125 -22 17 -3 39 -7
50 -8 11 -2 20 -4 20 -5 0 -1 16 -4 35 -6 19 -2 49 -6 65 -10 17 -3 55 -10 85
-15 91 -15 104 -18 130 -24 14 -3 43 -8 65 -11 22 -4 63 -11 90 -16 28 -5 64
-12 80 -14 17 -3 53 -10 80 -15 28 -6 64 -12 80 -14 17 -3 44 -7 60 -10 50
-10 99 -18 120 -21 11 -2 34 -6 50 -9 17 -3 41 -8 55 -10 82 -15 149 -27 175
-31 17 -3 41 -8 55 -10 14 -3 39 -8 55 -10 17 -3 42 -8 58 -11 l27 -6 0 4829
c0 4739 0 4829 -19 4830 -10 1 -21 -1 -24 -3z"/>
</g>
</svg>
