<?xml version="1.0" encoding="UTF-8" standalone="no"?>
<!-- Generator: Adobe Illustrator 16.0.0, SVG Export Plug-In . SVG Version: 6.00 Build 0)  -->

<svg
   xmlns:dc="http://purl.org/dc/elements/1.1/"
   xmlns:cc="http://creativecommons.org/ns#"
   xmlns:rdf="http://www.w3.org/1999/02/22-rdf-syntax-ns#"
   xmlns:svg="http://www.w3.org/2000/svg"
   xmlns="http://www.w3.org/2000/svg"
   xmlns:sodipodi="http://sodipodi.sourceforge.net/DTD/sodipodi-0.dtd"
   xmlns:inkscape="http://www.inkscape.org/namespaces/inkscape"
   version="1.1"
   id="Layer_1"
   x="0px"
   y="0px"
   width="300"
   height="300"
   viewBox="0 0 299.99999 299.99999"
   xml:space="preserve"
   inkscape:version="0.91 r13725"
   sodipodi:docname="instagram.svg"><metadata
     id="metadata45"><rdf:RDF><cc:Work
         rdf:about=""><dc:format>image/svg+xml</dc:format><dc:type
           rdf:resource="http://purl.org/dc/dcmitype/StillImage" /><dc:title></dc:title></cc:Work></rdf:RDF></metadata><defs
     id="defs43" /><sodipodi:namedview
     pagecolor="#ffffff"
     bordercolor="#666666"
     borderopacity="1"
     objecttolerance="10"
     gridtolerance="10"
     guidetolerance="10"
     inkscape:pageopacity="0"
     inkscape:pageshadow="2"
     inkscape:window-width="1536"
     inkscape:window-height="919"
     id="namedview41"
     showgrid="false"
     inkscape:zoom="1.6328077"
     inkscape:cx="102.55291"
     inkscape:cy="130.09591"
     inkscape:window-x="0"
     inkscape:window-y="23"
     inkscape:window-maximized="0"
     inkscape:current-layer="Layer_1" /><g
     id="g11"
     transform="translate(0,130.937)" /><g
     id="g13"
     transform="translate(0,130.937)" /><g
     id="g15"
     transform="translate(0,130.937)" /><g
     id="g17"
     transform="translate(0,130.937)" /><g
     id="g19"
     transform="translate(0,130.937)" /><g
     id="g21"
     transform="translate(0,130.937)" /><g
     id="g23"
     transform="translate(0,130.937)" /><g
     id="g25"
     transform="translate(0,130.937)" /><g
     id="g27"
     transform="translate(0,130.937)" /><g
     id="g29"
     transform="translate(0,130.937)" /><g
     id="g31"
     transform="translate(0,130.937)" /><g
     id="g33"
     transform="translate(0,130.937)" /><g
     id="g35"
     transform="translate(0,130.937)" /><g
     id="g37"
     transform="translate(0,130.937)" /><g
     id="g39"
     transform="translate(0,130.937)" /><g
     style="fill:#000000"
     id="g4175"
     transform="translate(65.469,65.469)"><path
       id="path4181"
       style="fill:#000000"
       d="m 129.921,28.251 c -2.89,0 -5.729,1.17 -7.77,3.22 -2.051,2.04 -3.23,4.88 -3.23,7.78 0,2.891 1.18,5.73 3.23,7.78 2.04,2.04 4.88,3.22 7.77,3.22 2.9,0 5.73,-1.18 7.78,-3.22 2.05,-2.05 3.22,-4.89 3.22,-7.78 0,-2.9 -1.17,-5.74 -3.22,-7.78 -2.04,-2.05 -4.88,-3.22 -7.78,-3.22 z M 84.531,40.97 c -24.021,0 -43.563,19.542 -43.563,43.563 0,24.02 19.542,43.561 43.563,43.561 24.021,0 43.563,-19.541 43.563,-43.561 0,-24.021 -19.542,-43.563 -43.563,-43.563 z m 0,72.123 c -15.749,0 -28.563,-12.812 -28.563,-28.561 0,-15.75 12.813,-28.563 28.563,-28.563 15.75,0 28.563,12.813 28.563,28.563 0,15.749 -12.814,28.561 -28.563,28.561 z M 122.406,0 46.654,0 C 20.929,0 0,20.93 0,46.655 l 0,75.752 c 0,25.726 20.929,46.655 46.654,46.655 l 75.752,0 c 25.727,0 46.656,-20.93 46.656,-46.655 l 0,-75.752 C 169.063,20.93 148.133,0 122.406,0 Z m 31.657,122.407 c 0,17.455 -14.201,31.655 -31.656,31.655 l -75.753,0 C 29.2,154.063 15,139.862 15,122.407 L 15,46.655 C 15,29.201 29.2,15 46.654,15 l 75.752,0 c 17.455,0 31.656,14.201 31.656,31.655 l 0,75.752 z m 80.468,-37.876 a 150,150 0 0 1 -150,150 150,150 0 0 1 -150,-150 150,150 0 0 1 150,-150 150,150 0 0 1 150,150 z" /></g></svg>