<?xml version="1.0" encoding="UTF-8" standalone="no"?>
<!-- Generator: Adobe Illustrator 18.1.1, SVG Export Plug-In . SVG Version: 6.00 Build 0)  -->

<svg
   xmlns:dc="http://purl.org/dc/elements/1.1/"
   xmlns:cc="http://creativecommons.org/ns#"
   xmlns:rdf="http://www.w3.org/1999/02/22-rdf-syntax-ns#"
   xmlns:svg="http://www.w3.org/2000/svg"
   xmlns="http://www.w3.org/2000/svg"
   xmlns:sodipodi="http://sodipodi.sourceforge.net/DTD/sodipodi-0.dtd"
   xmlns:inkscape="http://www.inkscape.org/namespaces/inkscape"
   version="1.1"
   viewBox="0 0 511.627 401.98899"
   id="svg2"
   inkscape:version="0.91 r13725"
   sodipodi:docname="mail.svg"
   width="511.62701"
   height="401.98901">
  <metadata
     id="metadata11">
    <rdf:RDF>
      <cc:Work
         rdf:about="">
        <dc:format>image/svg+xml</dc:format>
        <dc:type
           rdf:resource="http://purl.org/dc/dcmitype/StillImage" />
        <dc:title></dc:title>
      </cc:Work>
    </rdf:RDF>
  </metadata>
  <defs
     id="defs9" />
  <sodipodi:namedview
     pagecolor="#ffffff"
     bordercolor="#666666"
     borderopacity="1"
     objecttolerance="10"
     gridtolerance="10"
     guidetolerance="10"
     inkscape:pageopacity="0"
     inkscape:pageshadow="2"
     inkscape:window-width="1305"
     inkscape:window-height="776"
     id="namedview7"
     showgrid="false"
     inkscape:zoom="0.64428067"
     inkscape:cx="141.3835"
     inkscape:cy="183.14999"
     inkscape:window-x="0"
     inkscape:window-y="23"
     inkscape:window-maximized="0"
     inkscape:current-layer="svg2" />
  <path
     class="env-svg"
     d="m 49.106,123.90899 c 6.472,4.567 25.981,18.13099 58.528,40.68499 32.548,22.554 57.482,39.92 74.803,52.099 1.903,1.335 5.946,4.237 12.131,8.71 6.186,4.476 11.326,8.093 15.416,10.852 4.093,2.758 9.041,5.852 14.849,9.277 5.806,3.422 11.279,5.996 16.418,7.7 5.14,1.718 9.898,2.569 14.275,2.569 l 0.287,0 0.288,0 c 4.377,0 9.137,-0.852 14.277,-2.569 5.137,-1.704 10.615,-4.281 16.416,-7.7 5.804,-3.429 10.752,-6.52 14.845,-9.277 4.093,-2.759 9.229,-6.376 15.417,-10.852 6.184,-4.477 10.232,-7.375 12.135,-8.71 17.508,-12.179 62.051,-43.11 133.615,-92.78999 13.894,-9.703 25.502,-21.411 34.827,-35.116005 9.332,-13.699 13.993,-28.07 13.993,-43.105 0,-12.564 -4.523,-23.319 -13.565,-32.264 C 489.02,4.4709852 478.312,-1.4792969e-5 465.944,-1.4792969e-5 l -420.265,0 C 31.024,-1.4792969e-5 19.746,4.9479852 11.847,14.843985 3.949,24.741985 0,37.113985 0,51.958985 c 0,11.991 5.236,24.985 15.703,38.974 10.466,13.990005 21.604,24.983005 33.403,32.976005 z"
     id="path3"
     inkscape:connector-curvature="0" />
  <path
     class="env-svg"
     d="m 483.072,154.45498 c -62.424,42.251 -109.824,75.087 -142.177,98.501 -10.849,7.991 -19.65,14.229 -26.409,18.699 -6.759,4.473 -15.748,9.041 -26.98,13.702 -11.228,4.668 -21.692,6.995 -31.401,6.995 l -0.291,0 -0.287,0 c -9.707,0 -20.177,-2.327 -31.405,-6.995 -11.228,-4.661 -20.223,-9.229 -26.98,-13.702 -6.755,-4.47 -15.559,-10.708 -26.407,-18.699 -25.697,-18.842 -72.995,-51.68 -141.896,-98.501 C 17.987,147.22698 8.375,138.94198 0,129.61699 l 0,226.68499 c 0,12.57 4.471,23.319 13.418,32.265 8.945,8.949 19.701,13.422 32.264,13.422 l 420.266,0 c 12.56,0 23.315,-4.473 32.261,-13.422 8.949,-8.949 13.418,-19.694 13.418,-32.265 l 0,-226.68499 c -8.186,9.13199 -17.7,17.41699 -28.555,24.83799 z"
     id="path5"
     inkscape:connector-curvature="0" />
</svg>
